<svg xmlns="http://www.w3.org/2000/svg" xmlns:xlink="http://www.w3.org/1999/xlink" width="500" zoomAndPan="magnify" viewBox="0 0 375 374.999991" height="500" preserveAspectRatio="xMidYMid meet" version="1.0"><defs><g/><clipPath id="4781a06ba2"><path d="M 69.921875 182 L 298 182 L 298 241.613281 L 69.921875 241.613281 Z M 69.921875 182 " clip-rule="nonzero"/></clipPath><clipPath id="8956b13c56"><path d="M 69.921875 100 L 306.921875 100 L 306.921875 241.613281 L 69.921875 241.613281 Z M 69.921875 100 " clip-rule="nonzero"/></clipPath><clipPath id="7158109bf1"><path d="M 69.921875 45.863281 L 226 45.863281 L 226 241.613281 L 69.921875 241.613281 Z M 69.921875 45.863281 " clip-rule="nonzero"/></clipPath></defs><g clip-path="url(#4781a06ba2)"><path fill="#3ff8e8" d="M 263.359375 182.875 C 179.355469 176.8125 119.824219 202.9375 69.921875 241.75 C 101.332031 226.292969 140.828125 217.085938 183.753906 217.085938 C 226.671875 217.085938 266.167969 226.292969 297.574219 241.75 Z M 263.359375 182.875 " fill-opacity="1" fill-rule="evenodd"/></g><g clip-path="url(#8956b13c56)"><path fill="#8eeef1" d="M 69.921875 241.75 C 119.824219 202.9375 179.355469 176.8125 263.359375 182.875 L 307.050781 100.082031 C 278.710938 102.65625 251.308594 108.050781 225.105469 117.066406 C 166.347656 137.289062 113.601562 175.792969 69.921875 241.75 Z M 69.921875 241.75 " fill-opacity="1" fill-rule="evenodd"/></g><g clip-path="url(#7158109bf1)"><path fill="#1e7676" d="M 69.921875 241.75 C 113.601562 175.792969 166.347656 137.289062 225.105469 117.066406 L 183.753906 45.902344 Z M 69.921875 241.75 " fill-opacity="1" fill-rule="evenodd"/></g><g fill="#000000" fill-opacity="1"><g transform="translate(49.02039, 291.43381)"><g><path d="M 11.34375 0 L -0.609375 0 L 15.625 -42.90625 L 27.890625 -42.90625 L 44.140625 0 L 32.1875 0 L 29.421875 -7.65625 L 14.09375 -7.65625 Z M 16.859375 -15.625 L 26.671875 -15.625 L 21.765625 -30.03125 Z M 16.859375 -15.625 "/></g></g></g><g fill="#000000" fill-opacity="1"><g transform="translate(107.86125, 291.43381)"><g><path d="M 41.0625 0 L 30.03125 0 L 30.03125 -17.46875 L 14.71875 -17.46875 L 14.71875 0 L 3.671875 0 L 3.671875 -42.90625 L 14.71875 -42.90625 L 14.71875 -26.046875 L 30.03125 -26.046875 L 30.03125 -42.90625 L 41.0625 -42.90625 Z M 41.0625 0 "/></g></g></g><g fill="#000000" fill-opacity="1"><g transform="translate(167.927914, 291.43381)"><g><path d="M 2.390625 -8.890625 C 13.585938 -8.273438 21.164062 -7.96875 25.125 -7.96875 C 26.070312 -7.96875 26.820312 -8.242188 27.375 -8.796875 C 27.925781 -9.347656 28.203125 -10.09375 28.203125 -11.03125 L 28.203125 -16.546875 L 14.09375 -16.546875 C 9.800781 -16.546875 6.6875 -17.515625 4.75 -19.453125 C 2.8125 -21.398438 1.84375 -24.519531 1.84375 -28.8125 L 1.84375 -30.65625 C 1.84375 -34.9375 2.8125 -38.046875 4.75 -39.984375 C 6.6875 -41.929688 9.800781 -42.90625 14.09375 -42.90625 L 35.609375 -42.90625 L 35.609375 -34.328125 L 16.546875 -34.328125 C 14.097656 -34.328125 12.875 -33.101562 12.875 -30.65625 L 12.875 -29.421875 C 12.875 -26.972656 14.097656 -25.75 16.546875 -25.75 L 27.578125 -25.75 C 31.585938 -25.75 34.53125 -24.804688 36.40625 -22.921875 C 38.289062 -21.046875 39.234375 -18.101562 39.234375 -14.09375 L 39.234375 -11.03125 C 39.234375 -7.03125 38.289062 -4.085938 36.40625 -2.203125 C 34.53125 -0.328125 31.585938 0.609375 27.578125 0.609375 C 25.492188 0.609375 23.289062 0.566406 20.96875 0.484375 L 15.328125 0.25 C 11.160156 0.0390625 6.847656 -0.242188 2.390625 -0.609375 Z M 2.390625 -8.890625 "/></g></g></g><g fill="#000000" fill-opacity="1"><g transform="translate(224.317187, 291.43381)"><g><path d="M 11.34375 0 L -0.609375 0 L 15.625 -42.90625 L 27.890625 -42.90625 L 44.140625 0 L 32.1875 0 L 29.421875 -7.65625 L 14.09375 -7.65625 Z M 16.859375 -15.625 L 26.671875 -15.625 L 21.765625 -30.03125 Z M 16.859375 -15.625 "/></g></g></g><g fill="#000000" fill-opacity="1"><g transform="translate(283.158047, 291.43381)"><g><path d="M 41.0625 0 L 29.421875 0 L 14.71875 -25.75 L 14.71875 0 L 3.671875 0 L 3.671875 -42.90625 L 15.328125 -42.90625 L 30.03125 -17.15625 L 30.03125 -42.90625 L 41.0625 -42.90625 Z M 41.0625 0 "/></g></g></g></svg>